<svg xmlns="http://www.w3.org/2000/svg" version="1.0" width="720.000000pt" height="1280.000000pt" viewBox="0 0 720.000000 1280.000000" preserveAspectRatio="xMidYMid meet">

<g transform="translate(0.000000,1280.000000) scale(0.100000,-0.100000)" fill="#000000" stroke="none">
<path/>
<path d="M3495 8700 c-70 -9 -200 -44 -261 -71 -108 -46 -239 -149 -325 -254 l-52 -64 -51 26 c-86 44 -246 93 -343 105 -180 23 -374 -34 -480 -142 -122 -124 -175 -317 -130 -470 47 -158 231 -343 434 -437 41 -19 76 -40 79 -48 3 -8 -1 -38 -9 -67 -19 -64 -32 -160 -47 -333 -6 -71 -13 -144 -15 -162 -3 -24 -21 -49 -74 -100 -80 -78 -95 -115 -95 -228 0 -81 21 -137 77 -203 21 -24 35 -48 32 -53 -10 -16 -108 -39 -164 -39 -52 0 -108 19 -152 51 -9 7 -24 9 -33 6 -14 -6 -16 -14 -11 -39 12 -63 74 -176 116 -212 52 -44 163 -102 214 -111 22 -4 43 -12 47 -18 4 -7 8 -48 8 -93 0 -88 10 -125 78 -281 91 -209 105 -304 68 -456 -25 -104 -21 -217 10 -312 36 -112 58 -146 170 -260 99 -100 251 -208 296 -209 17 -1 25 12 44 67 12 37 33 82 45 100 28 41 111 127 122 127 14 0 -3 -42 -34 -84 -16 -22 -29 -46 -29 -54 0 -27 71 -7 165 46 119 67 179 110 275 200 82 76 90 76 65 7 -29 -81 -16 -83 101 -20 174 95 285 195 360 322 20 34 43 68 51 74 12 11 13 5 7 -39 -4 -31 -3 -52 3 -52 21 0 102 60 147 111 125 139 247 374 282 543 12 57 29 93 86 184 39 62 73 114 77 116 4 3 26 -9 50 -25 40 -27 51 -29 130 -29 152 1 281 61 401 186 202 212 265 498 159 723 -37 79 -83 125 -177 174 -56 30 -72 43 -72 60 0 12 13 68 30 124 16 56 36 151 45 210 9 59 21 127 27 151 14 58 4 303 -15 363 -44 136 -148 274 -294 391 -62 49 -282 197 -342 230 -25 14 -31 23 -31 51 0 149 -153 251 -318 213 -18 -4 -53 -23 -78 -42 l-44 -34 -57 20 c-31 11 -80 22 -107 26 -28 3 -80 12 -116 19 -83 18 -267 26 -345 15z m901 -99 c45 -20 84 -63 84 -92 0 -23 -3 -23 -40 -4 -16 8 -68 29 -115 46 -47 17 -88 35 -91 40 -3 5 5 13 18 18 37 16 100 12 144 -8z m-559 -16 c152 -22 416 -96 467 -132 54 -38 101 -110 129 -197 32 -103 29 -324 -6 -481 -40 -179 -70 -269 -90 -273 -9 -2 -70 21 -135 51 -64 30 -172 76 -240 102 -174 68 -302 134 -320 166 -14 25 -14 29 6 54 39 50 26 108 -35 160 -50 41 -45 74 20 149 114 131 211 276 194 292 -10 10 -74 -37 -142 -106 -33 -33 -63 -60 -67 -60 -15 0 -8 44 17 115 27 77 32 115 13 115 -14 -1 -137 -247 -158 -315 -16 -50 -25 -62 -69 -85 -20 -11 -30 -19 -23 -20 7 0 22 5 34 11 11 6 22 8 25 5 3 -3 -11 -13 -32 -23 -26 -12 -44 -32 -61 -65 -13 -27 -27 -48 -30 -48 -2 0 0 9 6 19 15 29 12 68 -6 75 -26 10 -59 7 -79 -8 -24 -18 -51 -10 -100 29 -60 48 -173 123 -195 130 -28 9 -25 27 13 77 83 108 274 223 427 257 108 24 293 26 437 6z m-231 -199 c-14 -42 -26 -86 -26 -97 0 -11 -5 -40 -11 -64 -10 -39 -13 -43 -30 -32 -14 9 -21 9 -31 -1 -10 -10 -9 -16 5 -30 16 -15 19 -15 27 -2 7 11 10 5 10 -23 0 -48 18 -82 69 -130 50 -47 52 -74 11 -119 -17 -18 -28 -38 -25 -45 7 -21 -5 -15 -51 23 -36 29 -44 41 -44 69 0 19 9 50 21 70 25 42 20 74 -17 119 -34 40 -28 69 47 224 32 68 60 128 60 135 1 7 3 5 6 -5 2 -9 -7 -50 -21 -92z m189 35 c-12 -25 -81 -106 -112 -133 -97 -85 -110 -90 -78 -29 14 28 183 190 198 191 4 0 1 -13 -8 -29z m779 -92 c146 -81 239 -146 316 -222 70 -68 157 -181 194 -252 36 -66 69 -220 64 -291 -11 -136 -56 -372 -93 -482 -4 -9 -32 7 -88 50 -139 109 -240 171 -485 298 -60 32 -81 48 -77 59 7 27 83 334 89 366 16 76 23 224 15 297 -10 84 -28 129 -85 208 -19 26 -34 50 -34 54 0 10 65 -20 184 -85z m-1979 -14 c72 -19 159 -50 195 -68 67 -34 500 -314 579 -375 83 -63 390 -209 739 -352 205 -84 212 -87 174 -94 -93 -14 -318 24 -454 78 -35 14 -76 28 -93 32 -51 11 -235 109 -354 189 -63 42 -189 136 -280 209 -260 208 -367 274 -547 335 -211 71 -306 64 -474 -34 l-45 -26 40 36 c64 59 121 88 189 95 137 16 196 11 331 -25z m1056 -82 c-5 -10 -22 -29 -37 -43 -24 -22 -23 -20 6 18 35 44 47 54 31 25z m-147 -128 c26 -27 28 -53 5 -104 -14 -34 -19 -61 -15 -81 7 -39 -7 -39 -66 0 -73 48 -75 53 -47 111 16 35 34 56 59 69 43 23 45 24 64 5z m-168 -39 c9 -25 -13 -55 -37 -49 -29 8 -36 33 -14 49 24 18 44 18 51 0z m-259 -257 c51 -26 169 -97 262 -158 94 -62 210 -130 258 -153 l88 -41 -61 -16 c-106 -30 -169 -84 -214 -182 -20 -45 -26 -104 -12 -113 4 -2 30 11 57 30 121 83 327 111 433 58 63 -31 147 -121 163 -175 29 -94 70 -52 50 50 -13 63 -70 186 -107 230 l-26 31 24 0 c13 0 39 -5 58 -10 69 -21 232 -31 313 -20 89 13 129 4 178 -37 58 -50 74 -95 74 -218 0 -125 -20 -203 -86 -341 -22 -45 -37 -89 -33 -97 7 -20 121 -109 141 -111 9 0 33 28 58 69 101 167 200 235 351 243 79 4 88 3 150 -28 52 -25 72 -42 99 -83 37 -57 65 -154 65 -230 0 -64 -25 -184 -52 -244 -89 -202 -271 -351 -439 -361 -78 -5 -108 8 -180 75 -28 27 -53 42 -60 38 -6 -4 -25 -37 -41 -72 -16 -35 -33 -61 -38 -58 -6 4 -8 44 -4 103 6 105 -4 177 -25 177 -8 0 -23 -33 -37 -82 -51 -175 -167 -370 -313 -526 -158 -167 -380 -309 -691 -441 -132 -57 -198 -76 -258 -76 -39 0 -44 3 -56 33 -22 53 -28 103 -14 114 7 6 40 18 73 28 74 21 112 40 148 73 31 29 37 59 10 46 -88 -38 -250 -70 -314 -61 -195 26 -248 48 -330 134 -74 78 -89 69 -44 -28 29 -64 41 -79 78 -103 15 -10 27 -26 27 -36 0 -19 -68 -128 -92 -148 -24 -19 -54 13 -142 155 -138 224 -210 391 -223 519 -6 69 -9 67 80 79 27 4 67 13 89 21 53 18 64 9 71 -63 14 -134 121 -264 283 -345 85 -42 90 -43 203 -47 159 -5 235 10 351 70 211 108 369 282 402 443 6 34 16 56 24 56 7 0 25 -18 41 -40 15 -22 31 -40 35 -40 15 0 19 48 9 87 -14 51 -42 87 -93 119 -32 21 -39 30 -34 47 4 12 12 47 18 77 6 30 14 59 18 63 4 5 26 -7 47 -27 44 -39 99 -148 111 -216 10 -57 24 -55 40 5 48 189 -135 406 -333 393 -81 -5 -235 -84 -235 -120 0 -13 44 -9 83 7 20 8 64 15 97 15 52 0 60 -2 60 -19 0 -28 -94 -126 -138 -144 -93 -37 -188 -30 -300 23 -63 29 -64 30 -56 62 15 69 1 128 -30 128 -7 0 -22 -24 -34 -52 -39 -91 -108 -151 -220 -190 -59 -20 -85 -23 -217 -22 -136 0 -156 2 -217 26 -150 57 -242 140 -274 244 -22 75 -2 163 49 211 62 60 90 68 222 68 139 -1 225 -21 368 -87 88 -40 167 -60 167 -41 0 22 -86 94 -125 104 -91 23 -103 38 -61 78 32 30 56 81 56 120 0 26 -6 33 -37 46 -43 18 -83 52 -83 71 0 21 35 34 88 34 71 0 78 12 63 108 -22 143 -77 212 -154 191 -89 -24 -136 -103 -167 -283 -21 -117 -28 -234 -16 -254 5 -8 -142 -10 -206 -3 -5 1 -8 29 -8 64 0 148 43 422 96 604 28 100 120 296 154 332 13 13 55 39 94 57 67 32 77 33 166 31 91 -2 99 -4 187 -48z m624 -1904 c-59 -151 -172 -286 -275 -325 -21 -8 -27 -6 -36 9 -13 25 -39 187 -31 199 3 5 29 14 56 21 66 16 124 49 226 126 46 35 85 60 87 56 1 -5 -11 -43 -27 -86z m-904 33 c29 -29 53 -56 53 -60 0 -22 -165 13 -192 40 -7 7 66 70 82 72 2 0 28 -23 57 -52z m-17 -117 c19 -6 54 -15 76 -20 38 -10 42 -14 46 -49 3 -20 13 -76 24 -124 10 -48 16 -90 12 -93 -11 -12 -75 23 -113 61 -44 44 -86 129 -93 190 -5 48 -4 48 48 35z m540 -80 c0 -19 10 -65 22 -102 11 -36 19 -73 16 -81 -8 -20 -148 -60 -229 -66 -38 -2 -82 1 -102 7 -34 11 -38 18 -58 79 -11 37 -23 96 -26 132 l-5 65 191 0 191 0 0 -34z m-740 -1044 c0 -52 7 -78 45 -162 25 -55 45 -101 45 -102 0 -2 -11 4 -25 13 -40 26 -89 136 -93 210 -2 35 -1 75 2 89 11 44 26 17 26 -48z"/>
<path d="M3253 8104 c-25 -22 -25 -24 -3 -10 13 9 39 16 57 16 17 0 35 5 38 10 4 6 -8 10 -29 10 -24 0 -44 -8 -63 -26z"/>
<path d="M3551 7994 c-38 -32 -41 -71 -8 -102 29 -27 38 -27 71 -1 39 31 32 94 -14 119 -15 8 -25 5 -49 -16z m69 -19 c7 -9 10 -25 5 -42 -11 -44 -41 -56 -69 -27 -21 20 -20 26 5 58 23 29 41 33 59 11z"/>
<path d="M2730 7708 c-97 -49 -140 -113 -190 -286 -18 -61 -18 -98 1 -86 5 3 22 31 38 63 90 178 265 214 372 75 23 -30 45 -54 49 -54 22 0 27 108 8 171 -15 52 -70 115 -111 128 -79 25 -99 23 -167 -11z"/>
<path d="M3568 6967 c-89 -38 -142 -88 -178 -170 -22 -51 -31 -142 -14 -142 6 0 33 29 60 65 70 92 126 124 226 129 84 3 118 -5 181 -47 57 -38 67 -19 29 61 -38 82 -87 115 -183 123 -53 4 -74 1 -121 -19z"/>
<path d="M3628 6737 c-31 -12 -69 -33 -83 -47 -35 -32 -69 -80 -62 -86 3 -3 27 6 54 19 27 14 76 33 108 42 56 17 63 17 128 0 80 -21 101 -12 73 29 -38 59 -130 77 -218 43z"/>
<path d="M3963 6725 c-66 -28 -32 -46 72 -37 48 3 83 0 126 -13 63 -19 80 -16 58 11 -40 49 -184 71 -256 39z"/>
<path d="M4960 6659 c-77 -42 -96 -63 -141 -154 -43 -87 -65 -185 -55 -240 11 -58 31 -41 69 57 38 99 50 114 88 105 71 -18 80 -177 14 -256 -54 -64 -11 -71 50 -8 102 107 94 273 -16 336 -16 9 -29 22 -29 29 0 18 118 92 147 92 57 0 93 -75 93 -193 0 -43 4 -66 10 -62 23 14 42 72 44 129 3 165 -130 245 -274 165z"/>
<path d="M3961 6605 c11 -11 202 -86 207 -81 10 11 -31 58 -63 72 -31 13 -155 21 -144 9z"/>
</g>
</svg>