<svg xmlns="http://www.w3.org/2000/svg" viewBox="0 0 24 24" width="48" height="48" role="img" aria-label="Barbatero logo">
  <!-- Silhouette using currentColor so CSS controla el color -->
  <path fill="currentColor" d="M14.121 11.293l6.243-6.243a1 1 0 1 0-1.414-1.414L12.707 9.879 9.88 7.05a3.5 3.5 0 1 0-1.414 1.414l2.828 2.828-6.243 6.243a1 1 0 0 0 1.414 1.414l6.243-6.243 2.828 2.828A3.5 3.5 0 1 0 14.121 11.293zM6.5 18.5a2.5 2.5 0 1 1 0-5 2.5 2.5 0 0 1 0 5zm11-11a2.5 2.5 0 1 1 0-5 2.5 2.5 0 0 1 0 5z"/>
</svg>